<svg xmlns="http://www.w3.org/2000/svg" viewBox="0 0 512 512">
  <defs>
    <linearGradient id="chattrGrad" x1="0%" y1="0%" x2="100%" y2="100%">
      <stop offset="0%" stop-color="#6366F1" />
      <stop offset="100%" stop-color="#4F46E5" />
    </linearGradient>
    <filter id="shadow" x="-10%" y="-10%" width="130%" height="130%">
      <feDropShadow dx="0" dy="16" stdDeviation="24" flood-color="#4F46E5" flood-opacity="0.35" />
    </filter>
  </defs>

  <!-- Base Rounded Container with Speech Tail -->
  <path
    fill="url(#chattrGrad)"
    filter="url(#shadow)"
    d="M120 48h272c39.8 0 72 32.2 72 72v208c0 39.8-32.2 72-72 72H210l-92 64c-11.4 7.9-26.9 3.5-33.1-8.5-2.5-4.8-3.9-10.2-3.9-15.7v-39.8H48c-39.8 0-72-32.2-72-72V120c0-39.8 32.2-72 72-72z"
    transform="translate(48, 20)"
  />

  <!-- Active Online Accent Dot -->
  <circle cx="410" cy="110" r="32" fill="#10B981" stroke="#FFFFFF" stroke-width="12" />

  <!-- Bold Central 'C' Letterform -->
  <path
    fill="#FFFFFF"
    d="M296 170c-26 0-47 9.5-62 25.5-17.5 18.5-26 44-26 72.5 0 28.5 8.5 54 26 72.5 15 16 36 25.5 62 25.5 22 0 39-6.5 52-17.5v-36c-13 10-28 15.5-46 15.5-14 0-25.5-5.5-34-15-10.5-12-16-27.5-16-45s5.5-33 16-45c8.5-9.5 20-15 34-15 18 0 33 5.5 46 15.5V206c-13-11-30-17.5-52-17.5z"
  />
</svg>
